<?xml version="1.0" encoding="UTF-8" standalone="no"?>
<svg
   xmlns:dc="http://purl.org/dc/elements/1.1/"
   xmlns:cc="http://creativecommons.org/ns#"
   xmlns:rdf="http://www.w3.org/1999/02/22-rdf-syntax-ns#"
   xmlns:svg="http://www.w3.org/2000/svg"
   xmlns="http://www.w3.org/2000/svg"
   xmlns:sodipodi="http://sodipodi.sourceforge.net/DTD/sodipodi-0.dtd"
   xmlns:inkscape="http://www.inkscape.org/namespaces/inkscape"
   height="78.080002"
   width="325.72"
   id="svg3945"
   version="1.1"
   viewBox="0 0 325.72 78.08"
   sodipodi:docname="imctermite.svg"
   inkscape:version="1.0.1 (3bc2e813f5, 2020-09-07)">
  <sodipodi:namedview
     pagecolor="#ffffff"
     bordercolor="#666666"
     borderopacity="1"
     objecttolerance="10"
     gridtolerance="10"
     guidetolerance="10"
     inkscape:pageopacity="0"
     inkscape:pageshadow="2"
     inkscape:window-width="2048"
     inkscape:window-height="1088"
     id="namedview18"
     showgrid="false"
     inkscape:zoom="2.5577614"
     inkscape:cx="138.13369"
     inkscape:cy="-27.086877"
     inkscape:window-x="0"
     inkscape:window-y="32"
     inkscape:window-maximized="1"
     inkscape:current-layer="svg3945"
     inkscape:document-rotation="0" />
  <metadata
     id="metadata3951">
    <rdf:RDF>
      <cc:Work
         rdf:about="">
        <dc:format>image/svg+xml</dc:format>
        <dc:type
           rdf:resource="http://purl.org/dc/dcmitype/StillImage" />
        <dc:title>flasher</dc:title>
      </cc:Work>
    </rdf:RDF>
  </metadata>
  <defs
     id="defs3949" />
  <title
     id="title3916">flasher</title>
  <g
     id="logog"
     transform="translate(0,0.99981694)">
    <path
       style="fill:#364d5c"
       transform="translate(-2.04,-1.15)"
       d="m 32.86,2 -13,7.5 v 0 h -0.05 v 0 l -0.48,0.28 c -4.27,2.46 -5.68,11.38 -6.06,14.75 L 36.2,11.33 c 0.39,-0.19 7.6,-3.69 13.57,-3.69 h 0.14 L 40.13,2 a 8.15,8.15 0 0 0 -7.27,0"
       id="path138"
       inkscape:connector-curvature="0" />
    <path
       style="fill:#364d5c"
       transform="translate(-2.04,-1.15)"
       d="M 5.68,17.69 A 8.2,8.2 0 0 0 2,24 v 15.78 c 0,4.9 7,10.48 9.75,12.46 V 25.77 c 0,-0.44 0.6,-8.55 3.65,-13.72 z"
       id="path142"
       inkscape:connector-curvature="0" />
    <path
       style="fill:#364d5c"
       transform="translate(-2.04,-1.15)"
       d="m 12.1,54.12 v 0 C 11.74,53.88 5,49.41 2,44.24 v 11.14 a 8.2,8.2 0 0 0 3.64,6.3 l 13.5,7.79 c 4.28,2.46 12.7,-0.77 15.81,-2.12 z"
       id="path146"
       inkscape:connector-curvature="0" />
    <path
       style="fill:#364d5c"
       transform="translate(-2.04,-1.15)"
       d="m 36.79,68 c -0.4,0.19 -7.71,3.75 -13.71,3.69 l 9.78,5.64 a 8.15,8.15 0 0 0 7.27,0 l 13.51,-7.8 c 4.27,-2.46 5.68,-11.39 6.06,-14.75 z"
       id="path150"
       inkscape:connector-curvature="0" />
    <path
       style="fill:#364d5c"
       transform="translate(-2.04,-1.15)"
       d="M 61.2,27.13 V 53.6 c 0,0.44 -0.6,8.55 -3.65,13.72 l 9.77,-5.64 A 8.2,8.2 0 0 0 71,55.38 V 39.59 c 0,-4.94 -7,-10.5 -9.75,-12.46"
       id="path154"
       inkscape:connector-curvature="0" />
    <path
       style="fill:#364d5c"
       transform="translate(-2.04,-1.15)"
       d="M 67.31,17.69 53.81,9.9 C 49.53,7.44 41.11,10.67 38,12 l 22.85,13.23 v 0 a 43.43,43.43 0 0 1 5.7,4.51 24,24 0 0 1 4.45,5.35 V 24 a 8.2,8.2 0 0 0 -3.64,-6.3"
       id="path158"
       inkscape:connector-curvature="0" />
  </g>
  <g
     id="re"
     transform="translate(0,0.99981694)" />
  <text
     id="text3955"
     y="55.47554"
     x="74.101189"
     style="font-style:normal;font-weight:normal;font-size:40px;line-height:1.25;font-family:sans-serif;letter-spacing:0px;word-spacing:0px;fill:#364d5c;fill-opacity:1;stroke:none"
     xml:space="preserve"><tspan
       style="font-style:normal;font-variant:normal;font-weight:bold;font-stretch:normal;font-size:44px;font-family:sans-serif;-inkscape-font-specification:'sans-serif, Bold';font-variant-ligatures:normal;font-variant-caps:normal;font-variant-numeric:normal;font-feature-settings:normal;text-align:start;writing-mode:lr-tb;text-anchor:start;fill:#364d5c;fill-opacity:1"
       y="55.47554"
       x="74.101189"
       id="tspan3953"><tspan
   id="tspan24"
   style="font-style:normal;font-variant:normal;font-weight:bold;font-stretch:normal;font-family:sans-serif;-inkscape-font-specification:'sans-serif Bold'">IMC</tspan><tspan
   id="tspan3845"
   style="font-style:normal;font-variant:normal;font-weight:normal;font-stretch:normal;font-family:sans-serif;-inkscape-font-specification:sans-serif">termite</tspan> </tspan></text>
</svg>
